<?xml version="1.0" encoding="utf-8"?>
<!-- Generator: Adobe Illustrator 19.2.1, SVG Export Plug-In . SVG Version: 6.00 Build 0)  -->
<svg preserveAspectRatio="none" height="100%" width="56px;" version="1.1" id="Layer_1" xmlns="http://www.w3.org/2000/svg" xmlns:xlink="http://www.w3.org/1999/xlink" x="0px" y="0px"
	 viewBox="0 0 56 242" style="enable-background:new 0 0 56 242;" xml:space="preserve">
<style type="text/css">
	.fader_tick{
		fill:#4E4E4E;
	}
	.fader_text{
		fill:#4E4E4E;
		font-family: "Helvetica Neue", Helvetica, Arial, "Lucida Grande", sans-serif;
	  font-style: normal;
	  font-variant: normal;
		font-size: .5em;
	}
</style>
<g id="Layer_1_1_">
	<path class="fader_tick" d="M34.1,20v-1h17.2v1H34.1z"/>
	<path class="fader_tick" d="M34.1,71.1v-1h17.2v1H34.1z"/>
	<path class="fader_tick" d="M34.1,122.2v-1h17.2v1H34.1z"/>
	<path class="fader_tick" d="M34.1,173.3v-1h17.2v1H34.1z"/>
	<path class="fader_tick" d="M33.1,223v-1h17.2v1H33.1z"/>
	<path class="fader_tick" d="M40.6,45.6v-1H46v1H40.6z"/>
	<path class="fader_tick" d="M40.1,96.7v-1h5.4v1H40.1z"/>
	<path class="fader_tick" d="M40.1,147.8v-1h5.4v1H40.1z"/>
	<path class="fader_tick" d="M40.1,198.9v-1h5.4v1H40.1z"/>
</g>
<g id="Layer_1_2_">
	<path class="fader_tick" d="M4.5,20.2v-1h17.2v1H4.5z"/>
	<text class="fader_text" x="4" y="17.5">12</text>
	<path class="fader_tick" d="M4.5,71.3v-1h17.2v1H4.5z"/>
	<text class="fader_text" x="7" y="68.5">0</text>
	<path class="fader_tick" d="M4.5,122.5v-1h17.2v1H4.5z"/>
	<text class="fader_text" x="3" y="120">-12</text>
	<path class="fader_tick" d="M4.5,173.6v-1h17.2v1H4.5z"/>
	<text class="fader_text" x="3" y="171">-24</text>
	<path class="fader_tick" d="M3.5,223.2v-1h17.2v1H3.5z"/>
	<text class="fader_text" x="4" y="220.5">-∞</text>
	<path class="fader_tick" d="M11,45.8v-1h5.4v1H11z"/>
	<path class="fader_tick" d="M10.5,96.9v-1h5.4v1H10.5z"/>
	<path class="fader_tick" d="M10.5,148v-1h5.4v1H10.5z"/>
	<path class="fader_tick" d="M10.5,199.1v-1h5.4v1H10.5z"/>
</g>
</svg>
